G04 #@! TF.FileFunction,Soldermask,Bot*
%FSLAX46Y46*%
G04 Gerber Fmt 4.6, Leading zero omitted, Abs format (unit mm)*
G04 Created by KiCad (PCBNEW 0.201503150816+5513~22~ubuntu14.04.1-product) date Thu 23 Apr 2015 07:11:57 PM EDT*
%MOMM*%
G01*
G04 APERTURE LIST*
%ADD10C,0.100000*%
%ADD11C,4.000000*%
%ADD12R,1.524000X1.524000*%
%ADD13C,1.524000*%
%ADD14C,1.998980*%
%ADD15R,1.699260X1.699260*%
%ADD16R,1.727200X2.032000*%
%ADD17O,1.727200X2.032000*%
%ADD18C,2.500000*%
%ADD19C,3.000000*%
%ADD20R,2.032000X1.727200*%
%ADD21O,2.032000X1.727200*%
%ADD22C,4.500000*%
%ADD23C,2.200000*%
%ADD24C,2.000000*%
%ADD25C,1.800000*%
%ADD26R,1.800000X1.800000*%
%ADD27C,1.500000*%
%ADD28R,1.500000X1.500000*%
%ADD29R,1.727200X1.727200*%
%ADD30O,1.727200X1.727200*%
%ADD31R,1.600000X1.500000*%
%ADD32R,1.200000X1.200000*%
G04 APERTURE END LIST*
D10*
D11*
X57150000Y-38100000D03*
X57150000Y-152400000D03*
X227330000Y-38100000D03*
D12*
X76200000Y-38120000D03*
D13*
X76200000Y-40620000D03*
D12*
X73660000Y-74910000D03*
D13*
X73660000Y-72410000D03*
D12*
X72390000Y-50820000D03*
D13*
X72390000Y-53320000D03*
D12*
X92456000Y-138831000D03*
D13*
X92456000Y-141331000D03*
D14*
X189230000Y-57150000D03*
D15*
X189230000Y-54610000D03*
D14*
X189230000Y-95250000D03*
D15*
X189230000Y-92710000D03*
D14*
X189230000Y-114300000D03*
D15*
X189230000Y-111760000D03*
D14*
X189230000Y-76200000D03*
D15*
X189230000Y-73660000D03*
D14*
X189230000Y-133350000D03*
D15*
X189230000Y-130810000D03*
D14*
X80010000Y-106680000D03*
D15*
X77470000Y-106680000D03*
D16*
X102870000Y-123190000D03*
D17*
X105410000Y-123190000D03*
X107950000Y-123190000D03*
D16*
X107823000Y-129667000D03*
D17*
X105283000Y-129667000D03*
X102743000Y-129667000D03*
D16*
X153670000Y-138430000D03*
D17*
X156210000Y-138430000D03*
X158750000Y-138430000D03*
D18*
X201340000Y-61930000D03*
D19*
X213540000Y-61930000D03*
X213590000Y-49880000D03*
D18*
X201340000Y-49930000D03*
D19*
X199390000Y-55880000D03*
D18*
X201340000Y-80980000D03*
D19*
X213540000Y-80980000D03*
X213590000Y-68930000D03*
D18*
X201340000Y-68980000D03*
D19*
X199390000Y-74930000D03*
D18*
X201340000Y-100030000D03*
D19*
X213540000Y-100030000D03*
X213590000Y-87980000D03*
D18*
X201340000Y-88030000D03*
D19*
X199390000Y-93980000D03*
D18*
X201340000Y-138130000D03*
D19*
X213540000Y-138130000D03*
X213590000Y-126080000D03*
D18*
X201340000Y-126130000D03*
D19*
X199390000Y-132080000D03*
D18*
X201340000Y-119080000D03*
D19*
X213540000Y-119080000D03*
X213590000Y-107030000D03*
D18*
X201340000Y-107080000D03*
D19*
X199390000Y-113030000D03*
D20*
X58420000Y-88900000D03*
D21*
X58420000Y-91440000D03*
X58420000Y-93980000D03*
X58420000Y-96520000D03*
D20*
X58420000Y-66040000D03*
D21*
X58420000Y-68580000D03*
X58420000Y-71120000D03*
X58420000Y-73660000D03*
X58420000Y-76200000D03*
X58420000Y-78740000D03*
D18*
X82430000Y-148590000D03*
X77430000Y-148590000D03*
X72430000Y-148590000D03*
X67430000Y-148590000D03*
X106560000Y-148590000D03*
X101560000Y-148590000D03*
X96560000Y-148590000D03*
X91560000Y-148590000D03*
X130690000Y-148590000D03*
X125690000Y-148590000D03*
X120690000Y-148590000D03*
X115690000Y-148590000D03*
X154820000Y-148590000D03*
X149820000Y-148590000D03*
X144820000Y-148590000D03*
X139820000Y-148590000D03*
D19*
X223520000Y-52070000D03*
X223520000Y-59690000D03*
X223520000Y-71120000D03*
X223520000Y-78740000D03*
X223520000Y-90170000D03*
X223520000Y-97790000D03*
X223520000Y-128270000D03*
X223520000Y-135890000D03*
X223520000Y-109220000D03*
X223520000Y-116840000D03*
D18*
X217050000Y-148590000D03*
X212050000Y-148590000D03*
X207050000Y-148590000D03*
X202050000Y-148590000D03*
X173910000Y-148590000D03*
X163910000Y-148590000D03*
X168910000Y-148590000D03*
X192960000Y-148590000D03*
X182960000Y-148590000D03*
X187960000Y-148590000D03*
D22*
X57960000Y-48260000D03*
X63960000Y-48260000D03*
X60960000Y-52960000D03*
D14*
X120650000Y-36830000D03*
X130810000Y-36830000D03*
D23*
X139740000Y-128310000D03*
X144740000Y-133310000D03*
X144740000Y-128310000D03*
X139740000Y-133310000D03*
X114340000Y-128310000D03*
X119340000Y-133310000D03*
X119340000Y-128310000D03*
X114340000Y-133310000D03*
X165140000Y-128310000D03*
X170140000Y-133310000D03*
X170140000Y-128310000D03*
X165140000Y-133310000D03*
X134840000Y-104140000D03*
D24*
X137240000Y-114640000D03*
X142240000Y-114640000D03*
X147240000Y-114640000D03*
X139740000Y-97140000D03*
X144740000Y-97140000D03*
D23*
X149640000Y-104140000D03*
D19*
X88900000Y-111380000D03*
X88900000Y-101980000D03*
X88900000Y-106680000D03*
D25*
X133910000Y-42500000D03*
X131370000Y-42500000D03*
X136450000Y-42500000D03*
X161850000Y-42500000D03*
X149150000Y-42500000D03*
X146610000Y-42500000D03*
X144070000Y-42500000D03*
X141530000Y-42500000D03*
X151690000Y-42500000D03*
X154230000Y-42500000D03*
X156770000Y-42500000D03*
X138990000Y-42500000D03*
X159310000Y-42500000D03*
X164390000Y-42500000D03*
X166930000Y-42500000D03*
D11*
X175970000Y-83500000D03*
X105970000Y-83500000D03*
X105970000Y-43500000D03*
X175970000Y-43500000D03*
D26*
X169470000Y-42500000D03*
D13*
X80010000Y-71080000D03*
D12*
X80010000Y-66080000D03*
D13*
X80010000Y-68580000D03*
D27*
X80010000Y-57540000D03*
D28*
X80010000Y-49140000D03*
D27*
X80010000Y-51940000D03*
X80010000Y-54740000D03*
D11*
X227330000Y-152400000D03*
D29*
X58420000Y-107950000D03*
D30*
X60960000Y-107950000D03*
X58420000Y-110490000D03*
X60960000Y-110490000D03*
X58420000Y-113030000D03*
X60960000Y-113030000D03*
X58420000Y-115570000D03*
X60960000Y-115570000D03*
X58420000Y-118110000D03*
X60960000Y-118110000D03*
D31*
X93980000Y-45213000D03*
D32*
X92380000Y-48463000D03*
X95580000Y-48463000D03*
M02*
