G04 #@! TF.FileFunction,Legend,Bot*
%FSLAX46Y46*%
G04 Gerber Fmt 4.6, Leading zero omitted, Abs format (unit mm)*
G04 Created by KiCad (PCBNEW 0.201503150816+5513~22~ubuntu14.04.1-product) date Thu 23 Apr 2015 07:11:57 PM EDT*
%MOMM*%
G01*
G04 APERTURE LIST*
%ADD10C,0.100000*%
%ADD11C,0.300000*%
%ADD12C,0.150000*%
G04 APERTURE END LIST*
D10*
D11*
X98337142Y-41175714D02*
X98408571Y-41247143D01*
X98622857Y-41318571D01*
X98765714Y-41318571D01*
X98979999Y-41247143D01*
X99122857Y-41104286D01*
X99194285Y-40961429D01*
X99265714Y-40675714D01*
X99265714Y-40461429D01*
X99194285Y-40175714D01*
X99122857Y-40032857D01*
X98979999Y-39890000D01*
X98765714Y-39818571D01*
X98622857Y-39818571D01*
X98408571Y-39890000D01*
X98337142Y-39961429D01*
X97408571Y-39818571D02*
X97122857Y-39818571D01*
X96979999Y-39890000D01*
X96837142Y-40032857D01*
X96765714Y-40318571D01*
X96765714Y-40818571D01*
X96837142Y-41104286D01*
X96979999Y-41247143D01*
X97122857Y-41318571D01*
X97408571Y-41318571D01*
X97551428Y-41247143D01*
X97694285Y-41104286D01*
X97765714Y-40818571D01*
X97765714Y-40318571D01*
X97694285Y-40032857D01*
X97551428Y-39890000D01*
X97408571Y-39818571D01*
X96122856Y-41318571D02*
X96122856Y-39818571D01*
X95265713Y-41318571D01*
X95265713Y-39818571D01*
X94765713Y-39818571D02*
X93908570Y-39818571D01*
X94337141Y-41318571D02*
X94337141Y-39818571D01*
X92551427Y-41318571D02*
X93051427Y-40604286D01*
X93408570Y-41318571D02*
X93408570Y-39818571D01*
X92837142Y-39818571D01*
X92694284Y-39890000D01*
X92622856Y-39961429D01*
X92551427Y-40104286D01*
X92551427Y-40318571D01*
X92622856Y-40461429D01*
X92694284Y-40532857D01*
X92837142Y-40604286D01*
X93408570Y-40604286D01*
X91979999Y-40890000D02*
X91265713Y-40890000D01*
X92122856Y-41318571D02*
X91622856Y-39818571D01*
X91122856Y-41318571D01*
X90694285Y-41247143D02*
X90479999Y-41318571D01*
X90122856Y-41318571D01*
X89979999Y-41247143D01*
X89908570Y-41175714D01*
X89837142Y-41032857D01*
X89837142Y-40890000D01*
X89908570Y-40747143D01*
X89979999Y-40675714D01*
X90122856Y-40604286D01*
X90408570Y-40532857D01*
X90551428Y-40461429D01*
X90622856Y-40390000D01*
X90694285Y-40247143D01*
X90694285Y-40104286D01*
X90622856Y-39961429D01*
X90551428Y-39890000D01*
X90408570Y-39818571D01*
X90051428Y-39818571D01*
X89837142Y-39890000D01*
X89408571Y-39818571D02*
X88551428Y-39818571D01*
X88979999Y-41318571D02*
X88979999Y-39818571D01*
X195372858Y-108485714D02*
X195444287Y-108557143D01*
X195658573Y-108628571D01*
X195801430Y-108628571D01*
X196015715Y-108557143D01*
X196158573Y-108414286D01*
X196230001Y-108271429D01*
X196301430Y-107985714D01*
X196301430Y-107771429D01*
X196230001Y-107485714D01*
X196158573Y-107342857D01*
X196015715Y-107200000D01*
X195801430Y-107128571D01*
X195658573Y-107128571D01*
X195444287Y-107200000D01*
X195372858Y-107271429D01*
X194444287Y-107128571D02*
X194158573Y-107128571D01*
X194015715Y-107200000D01*
X193872858Y-107342857D01*
X193801430Y-107628571D01*
X193801430Y-108128571D01*
X193872858Y-108414286D01*
X194015715Y-108557143D01*
X194158573Y-108628571D01*
X194444287Y-108628571D01*
X194587144Y-108557143D01*
X194730001Y-108414286D01*
X194801430Y-108128571D01*
X194801430Y-107628571D01*
X194730001Y-107342857D01*
X194587144Y-107200000D01*
X194444287Y-107128571D01*
X193158572Y-108628571D02*
X193158572Y-107128571D01*
X192301429Y-108628571D01*
X192301429Y-107128571D01*
X191587143Y-108628571D02*
X191587143Y-107128571D01*
X191230000Y-107128571D01*
X191015715Y-107200000D01*
X190872857Y-107342857D01*
X190801429Y-107485714D01*
X190730000Y-107771429D01*
X190730000Y-107985714D01*
X190801429Y-108271429D01*
X190872857Y-108414286D01*
X191015715Y-108557143D01*
X191230000Y-108628571D01*
X191587143Y-108628571D01*
X190087143Y-108628571D02*
X190087143Y-107128571D01*
X189587143Y-107128571D02*
X188730000Y-107128571D01*
X189158571Y-108628571D02*
X189158571Y-107128571D01*
X188230000Y-108628571D02*
X188230000Y-107128571D01*
X187230000Y-107128571D02*
X186944286Y-107128571D01*
X186801428Y-107200000D01*
X186658571Y-107342857D01*
X186587143Y-107628571D01*
X186587143Y-108128571D01*
X186658571Y-108414286D01*
X186801428Y-108557143D01*
X186944286Y-108628571D01*
X187230000Y-108628571D01*
X187372857Y-108557143D01*
X187515714Y-108414286D01*
X187587143Y-108128571D01*
X187587143Y-107628571D01*
X187515714Y-107342857D01*
X187372857Y-107200000D01*
X187230000Y-107128571D01*
X185944285Y-108628571D02*
X185944285Y-107128571D01*
X185087142Y-108628571D01*
X185087142Y-107128571D01*
X184372856Y-107842857D02*
X183872856Y-107842857D01*
X183658570Y-108628571D02*
X184372856Y-108628571D01*
X184372856Y-107128571D01*
X183658570Y-107128571D01*
X182158570Y-108628571D02*
X182658570Y-107914286D01*
X183015713Y-108628571D02*
X183015713Y-107128571D01*
X182444285Y-107128571D01*
X182301427Y-107200000D01*
X182229999Y-107271429D01*
X182158570Y-107414286D01*
X182158570Y-107628571D01*
X182229999Y-107771429D01*
X182301427Y-107842857D01*
X182444285Y-107914286D01*
X183015713Y-107914286D01*
X193551429Y-126178571D02*
X193051429Y-127678571D01*
X192551429Y-126178571D01*
X192122858Y-127250000D02*
X191408572Y-127250000D01*
X192265715Y-127678571D02*
X191765715Y-126178571D01*
X191265715Y-127678571D01*
X189908572Y-127535714D02*
X189980001Y-127607143D01*
X190194287Y-127678571D01*
X190337144Y-127678571D01*
X190551429Y-127607143D01*
X190694287Y-127464286D01*
X190765715Y-127321429D01*
X190837144Y-127035714D01*
X190837144Y-126821429D01*
X190765715Y-126535714D01*
X190694287Y-126392857D01*
X190551429Y-126250000D01*
X190337144Y-126178571D01*
X190194287Y-126178571D01*
X189980001Y-126250000D01*
X189908572Y-126321429D01*
X189265715Y-126178571D02*
X189265715Y-127392857D01*
X189194287Y-127535714D01*
X189122858Y-127607143D01*
X188980001Y-127678571D01*
X188694287Y-127678571D01*
X188551429Y-127607143D01*
X188480001Y-127535714D01*
X188408572Y-127392857D01*
X188408572Y-126178571D01*
X187694286Y-126178571D02*
X187694286Y-127392857D01*
X187622858Y-127535714D01*
X187551429Y-127607143D01*
X187408572Y-127678571D01*
X187122858Y-127678571D01*
X186980000Y-127607143D01*
X186908572Y-127535714D01*
X186837143Y-127392857D01*
X186837143Y-126178571D01*
X186122857Y-127678571D02*
X186122857Y-126178571D01*
X185622857Y-127250000D01*
X185122857Y-126178571D01*
X185122857Y-127678571D01*
X190444285Y-88792857D02*
X190944285Y-88792857D01*
X190944285Y-89578571D02*
X190944285Y-88078571D01*
X190229999Y-88078571D01*
X189730000Y-89150000D02*
X189015714Y-89150000D01*
X189872857Y-89578571D02*
X189372857Y-88078571D01*
X188872857Y-89578571D01*
X188372857Y-89578571D02*
X188372857Y-88078571D01*
X187515714Y-89578571D01*
X187515714Y-88078571D01*
X196622858Y-70528571D02*
X196622858Y-69028571D01*
X196265715Y-69028571D01*
X196051430Y-69100000D01*
X195908572Y-69242857D01*
X195837144Y-69385714D01*
X195765715Y-69671429D01*
X195765715Y-69885714D01*
X195837144Y-70171429D01*
X195908572Y-70314286D01*
X196051430Y-70457143D01*
X196265715Y-70528571D01*
X196622858Y-70528571D01*
X195122858Y-69742857D02*
X194622858Y-69742857D01*
X194408572Y-70528571D02*
X195122858Y-70528571D01*
X195122858Y-69028571D01*
X194408572Y-69028571D01*
X193765715Y-70528571D02*
X193765715Y-69028571D01*
X193765715Y-69742857D02*
X192908572Y-69742857D01*
X192908572Y-70528571D02*
X192908572Y-69028571D01*
X192194286Y-69028571D02*
X192194286Y-70242857D01*
X192122858Y-70385714D01*
X192051429Y-70457143D01*
X191908572Y-70528571D01*
X191622858Y-70528571D01*
X191480000Y-70457143D01*
X191408572Y-70385714D01*
X191337143Y-70242857D01*
X191337143Y-69028571D01*
X190622857Y-70528571D02*
X190622857Y-69028571D01*
X190122857Y-70100000D01*
X189622857Y-69028571D01*
X189622857Y-70528571D01*
X188908571Y-70528571D02*
X188908571Y-69028571D01*
X188194285Y-70528571D02*
X188194285Y-69028571D01*
X187837142Y-69028571D01*
X187622857Y-69100000D01*
X187479999Y-69242857D01*
X187408571Y-69385714D01*
X187337142Y-69671429D01*
X187337142Y-69885714D01*
X187408571Y-70171429D01*
X187479999Y-70314286D01*
X187622857Y-70457143D01*
X187837142Y-70528571D01*
X188194285Y-70528571D01*
X186694285Y-70528571D02*
X186694285Y-69028571D01*
X185479999Y-69742857D02*
X185979999Y-69742857D01*
X185979999Y-70528571D02*
X185979999Y-69028571D01*
X185265713Y-69028571D01*
X184694285Y-70528571D02*
X184694285Y-69028571D01*
X183979999Y-69742857D02*
X183479999Y-69742857D01*
X183265713Y-70528571D02*
X183979999Y-70528571D01*
X183979999Y-69028571D01*
X183265713Y-69028571D01*
X181765713Y-70528571D02*
X182265713Y-69814286D01*
X182622856Y-70528571D02*
X182622856Y-69028571D01*
X182051428Y-69028571D01*
X181908570Y-69100000D01*
X181837142Y-69171429D01*
X181765713Y-69314286D01*
X181765713Y-69528571D01*
X181837142Y-69671429D01*
X181908570Y-69742857D01*
X182051428Y-69814286D01*
X182622856Y-69814286D01*
X192980000Y-51478571D02*
X192980000Y-49978571D01*
X192980000Y-50692857D02*
X192122857Y-50692857D01*
X192122857Y-51478571D02*
X192122857Y-49978571D01*
X191408571Y-50692857D02*
X190908571Y-50692857D01*
X190694285Y-51478571D02*
X191408571Y-51478571D01*
X191408571Y-49978571D01*
X190694285Y-49978571D01*
X190122857Y-51050000D02*
X189408571Y-51050000D01*
X190265714Y-51478571D02*
X189765714Y-49978571D01*
X189265714Y-51478571D01*
X188980000Y-49978571D02*
X188122857Y-49978571D01*
X188551428Y-51478571D02*
X188551428Y-49978571D01*
X187622857Y-50692857D02*
X187122857Y-50692857D01*
X186908571Y-51478571D02*
X187622857Y-51478571D01*
X187622857Y-49978571D01*
X186908571Y-49978571D01*
X185408571Y-51478571D02*
X185908571Y-50764286D01*
X186265714Y-51478571D02*
X186265714Y-49978571D01*
X185694286Y-49978571D01*
X185551428Y-50050000D01*
X185480000Y-50121429D01*
X185408571Y-50264286D01*
X185408571Y-50478571D01*
X185480000Y-50621429D01*
X185551428Y-50692857D01*
X185694286Y-50764286D01*
X186265714Y-50764286D01*
D12*
X187325000Y-58420000D02*
X188468000Y-58420000D01*
X191389000Y-58420000D02*
X189992000Y-58420000D01*
X187960000Y-58039000D02*
X187579000Y-57785000D01*
X187579000Y-57785000D02*
X187198000Y-57404000D01*
X187198000Y-57404000D02*
X186944000Y-56896000D01*
X186944000Y-56896000D02*
X186690000Y-56134000D01*
X186690000Y-56134000D02*
X186690000Y-55753000D01*
X186690000Y-55753000D02*
X186817000Y-55118000D01*
X186817000Y-55118000D02*
X187198000Y-54356000D01*
X187198000Y-54356000D02*
X187452000Y-54102000D01*
X187452000Y-54102000D02*
X187833000Y-53721000D01*
X191389000Y-54483000D02*
X191008000Y-54102000D01*
X191008000Y-54102000D02*
X190754000Y-53848000D01*
X190754000Y-53848000D02*
X190627000Y-53721000D01*
X190500000Y-58039000D02*
X190754000Y-57912000D01*
X190754000Y-57912000D02*
X191135000Y-57531000D01*
X191135000Y-57531000D02*
X191516000Y-57023000D01*
X191516000Y-57023000D02*
X191643000Y-56642000D01*
X191643000Y-56642000D02*
X191770000Y-56134000D01*
X191770000Y-56134000D02*
X191770000Y-55753000D01*
X191770000Y-55753000D02*
X191643000Y-55118000D01*
X191643000Y-55118000D02*
X191389000Y-54483000D01*
X187325000Y-58420000D02*
X186944000Y-58039000D01*
X191389000Y-58293000D02*
X191643000Y-57912000D01*
X191643000Y-57912000D02*
X192024000Y-57404000D01*
X192024000Y-57404000D02*
X192278000Y-56769000D01*
X192278000Y-56769000D02*
X192405000Y-56134000D01*
X192405000Y-56134000D02*
X192405000Y-55626000D01*
X192405000Y-55626000D02*
X192278000Y-54991000D01*
X192278000Y-54991000D02*
X192024000Y-54356000D01*
X192024000Y-54356000D02*
X191643000Y-53848000D01*
X191643000Y-53848000D02*
X191135000Y-53340000D01*
X191135000Y-53340000D02*
X190500000Y-52959000D01*
X190500000Y-52959000D02*
X190119000Y-52832000D01*
X190119000Y-52832000D02*
X189484000Y-52705000D01*
X189484000Y-52705000D02*
X188849000Y-52705000D01*
X188849000Y-52705000D02*
X188341000Y-52832000D01*
X188341000Y-52832000D02*
X187706000Y-53086000D01*
X187706000Y-53086000D02*
X187198000Y-53467000D01*
X187198000Y-53467000D02*
X186690000Y-53975000D01*
X186690000Y-53975000D02*
X186436000Y-54356000D01*
X186436000Y-54356000D02*
X186182000Y-54991000D01*
X186182000Y-54991000D02*
X186055000Y-55626000D01*
X186055000Y-55626000D02*
X186055000Y-56261000D01*
X186055000Y-56261000D02*
X186182000Y-56896000D01*
X186182000Y-56896000D02*
X186563000Y-57658000D01*
X186563000Y-57658000D02*
X186944000Y-58039000D01*
X187325000Y-96520000D02*
X188468000Y-96520000D01*
X191389000Y-96520000D02*
X189992000Y-96520000D01*
X187960000Y-96139000D02*
X187579000Y-95885000D01*
X187579000Y-95885000D02*
X187198000Y-95504000D01*
X187198000Y-95504000D02*
X186944000Y-94996000D01*
X186944000Y-94996000D02*
X186690000Y-94234000D01*
X186690000Y-94234000D02*
X186690000Y-93853000D01*
X186690000Y-93853000D02*
X186817000Y-93218000D01*
X186817000Y-93218000D02*
X187198000Y-92456000D01*
X187198000Y-92456000D02*
X187452000Y-92202000D01*
X187452000Y-92202000D02*
X187833000Y-91821000D01*
X191389000Y-92583000D02*
X191008000Y-92202000D01*
X191008000Y-92202000D02*
X190754000Y-91948000D01*
X190754000Y-91948000D02*
X190627000Y-91821000D01*
X190500000Y-96139000D02*
X190754000Y-96012000D01*
X190754000Y-96012000D02*
X191135000Y-95631000D01*
X191135000Y-95631000D02*
X191516000Y-95123000D01*
X191516000Y-95123000D02*
X191643000Y-94742000D01*
X191643000Y-94742000D02*
X191770000Y-94234000D01*
X191770000Y-94234000D02*
X191770000Y-93853000D01*
X191770000Y-93853000D02*
X191643000Y-93218000D01*
X191643000Y-93218000D02*
X191389000Y-92583000D01*
X187325000Y-96520000D02*
X186944000Y-96139000D01*
X191389000Y-96393000D02*
X191643000Y-96012000D01*
X191643000Y-96012000D02*
X192024000Y-95504000D01*
X192024000Y-95504000D02*
X192278000Y-94869000D01*
X192278000Y-94869000D02*
X192405000Y-94234000D01*
X192405000Y-94234000D02*
X192405000Y-93726000D01*
X192405000Y-93726000D02*
X192278000Y-93091000D01*
X192278000Y-93091000D02*
X192024000Y-92456000D01*
X192024000Y-92456000D02*
X191643000Y-91948000D01*
X191643000Y-91948000D02*
X191135000Y-91440000D01*
X191135000Y-91440000D02*
X190500000Y-91059000D01*
X190500000Y-91059000D02*
X190119000Y-90932000D01*
X190119000Y-90932000D02*
X189484000Y-90805000D01*
X189484000Y-90805000D02*
X188849000Y-90805000D01*
X188849000Y-90805000D02*
X188341000Y-90932000D01*
X188341000Y-90932000D02*
X187706000Y-91186000D01*
X187706000Y-91186000D02*
X187198000Y-91567000D01*
X187198000Y-91567000D02*
X186690000Y-92075000D01*
X186690000Y-92075000D02*
X186436000Y-92456000D01*
X186436000Y-92456000D02*
X186182000Y-93091000D01*
X186182000Y-93091000D02*
X186055000Y-93726000D01*
X186055000Y-93726000D02*
X186055000Y-94361000D01*
X186055000Y-94361000D02*
X186182000Y-94996000D01*
X186182000Y-94996000D02*
X186563000Y-95758000D01*
X186563000Y-95758000D02*
X186944000Y-96139000D01*
X187325000Y-115570000D02*
X188468000Y-115570000D01*
X191389000Y-115570000D02*
X189992000Y-115570000D01*
X187960000Y-115189000D02*
X187579000Y-114935000D01*
X187579000Y-114935000D02*
X187198000Y-114554000D01*
X187198000Y-114554000D02*
X186944000Y-114046000D01*
X186944000Y-114046000D02*
X186690000Y-113284000D01*
X186690000Y-113284000D02*
X186690000Y-112903000D01*
X186690000Y-112903000D02*
X186817000Y-112268000D01*
X186817000Y-112268000D02*
X187198000Y-111506000D01*
X187198000Y-111506000D02*
X187452000Y-111252000D01*
X187452000Y-111252000D02*
X187833000Y-110871000D01*
X191389000Y-111633000D02*
X191008000Y-111252000D01*
X191008000Y-111252000D02*
X190754000Y-110998000D01*
X190754000Y-110998000D02*
X190627000Y-110871000D01*
X190500000Y-115189000D02*
X190754000Y-115062000D01*
X190754000Y-115062000D02*
X191135000Y-114681000D01*
X191135000Y-114681000D02*
X191516000Y-114173000D01*
X191516000Y-114173000D02*
X191643000Y-113792000D01*
X191643000Y-113792000D02*
X191770000Y-113284000D01*
X191770000Y-113284000D02*
X191770000Y-112903000D01*
X191770000Y-112903000D02*
X191643000Y-112268000D01*
X191643000Y-112268000D02*
X191389000Y-111633000D01*
X187325000Y-115570000D02*
X186944000Y-115189000D01*
X191389000Y-115443000D02*
X191643000Y-115062000D01*
X191643000Y-115062000D02*
X192024000Y-114554000D01*
X192024000Y-114554000D02*
X192278000Y-113919000D01*
X192278000Y-113919000D02*
X192405000Y-113284000D01*
X192405000Y-113284000D02*
X192405000Y-112776000D01*
X192405000Y-112776000D02*
X192278000Y-112141000D01*
X192278000Y-112141000D02*
X192024000Y-111506000D01*
X192024000Y-111506000D02*
X191643000Y-110998000D01*
X191643000Y-110998000D02*
X191135000Y-110490000D01*
X191135000Y-110490000D02*
X190500000Y-110109000D01*
X190500000Y-110109000D02*
X190119000Y-109982000D01*
X190119000Y-109982000D02*
X189484000Y-109855000D01*
X189484000Y-109855000D02*
X188849000Y-109855000D01*
X188849000Y-109855000D02*
X188341000Y-109982000D01*
X188341000Y-109982000D02*
X187706000Y-110236000D01*
X187706000Y-110236000D02*
X187198000Y-110617000D01*
X187198000Y-110617000D02*
X186690000Y-111125000D01*
X186690000Y-111125000D02*
X186436000Y-111506000D01*
X186436000Y-111506000D02*
X186182000Y-112141000D01*
X186182000Y-112141000D02*
X186055000Y-112776000D01*
X186055000Y-112776000D02*
X186055000Y-113411000D01*
X186055000Y-113411000D02*
X186182000Y-114046000D01*
X186182000Y-114046000D02*
X186563000Y-114808000D01*
X186563000Y-114808000D02*
X186944000Y-115189000D01*
X187325000Y-77470000D02*
X188468000Y-77470000D01*
X191389000Y-77470000D02*
X189992000Y-77470000D01*
X187960000Y-77089000D02*
X187579000Y-76835000D01*
X187579000Y-76835000D02*
X187198000Y-76454000D01*
X187198000Y-76454000D02*
X186944000Y-75946000D01*
X186944000Y-75946000D02*
X186690000Y-75184000D01*
X186690000Y-75184000D02*
X186690000Y-74803000D01*
X186690000Y-74803000D02*
X186817000Y-74168000D01*
X186817000Y-74168000D02*
X187198000Y-73406000D01*
X187198000Y-73406000D02*
X187452000Y-73152000D01*
X187452000Y-73152000D02*
X187833000Y-72771000D01*
X191389000Y-73533000D02*
X191008000Y-73152000D01*
X191008000Y-73152000D02*
X190754000Y-72898000D01*
X190754000Y-72898000D02*
X190627000Y-72771000D01*
X190500000Y-77089000D02*
X190754000Y-76962000D01*
X190754000Y-76962000D02*
X191135000Y-76581000D01*
X191135000Y-76581000D02*
X191516000Y-76073000D01*
X191516000Y-76073000D02*
X191643000Y-75692000D01*
X191643000Y-75692000D02*
X191770000Y-75184000D01*
X191770000Y-75184000D02*
X191770000Y-74803000D01*
X191770000Y-74803000D02*
X191643000Y-74168000D01*
X191643000Y-74168000D02*
X191389000Y-73533000D01*
X187325000Y-77470000D02*
X186944000Y-77089000D01*
X191389000Y-77343000D02*
X191643000Y-76962000D01*
X191643000Y-76962000D02*
X192024000Y-76454000D01*
X192024000Y-76454000D02*
X192278000Y-75819000D01*
X192278000Y-75819000D02*
X192405000Y-75184000D01*
X192405000Y-75184000D02*
X192405000Y-74676000D01*
X192405000Y-74676000D02*
X192278000Y-74041000D01*
X192278000Y-74041000D02*
X192024000Y-73406000D01*
X192024000Y-73406000D02*
X191643000Y-72898000D01*
X191643000Y-72898000D02*
X191135000Y-72390000D01*
X191135000Y-72390000D02*
X190500000Y-72009000D01*
X190500000Y-72009000D02*
X190119000Y-71882000D01*
X190119000Y-71882000D02*
X189484000Y-71755000D01*
X189484000Y-71755000D02*
X188849000Y-71755000D01*
X188849000Y-71755000D02*
X188341000Y-71882000D01*
X188341000Y-71882000D02*
X187706000Y-72136000D01*
X187706000Y-72136000D02*
X187198000Y-72517000D01*
X187198000Y-72517000D02*
X186690000Y-73025000D01*
X186690000Y-73025000D02*
X186436000Y-73406000D01*
X186436000Y-73406000D02*
X186182000Y-74041000D01*
X186182000Y-74041000D02*
X186055000Y-74676000D01*
X186055000Y-74676000D02*
X186055000Y-75311000D01*
X186055000Y-75311000D02*
X186182000Y-75946000D01*
X186182000Y-75946000D02*
X186563000Y-76708000D01*
X186563000Y-76708000D02*
X186944000Y-77089000D01*
X187325000Y-134620000D02*
X188468000Y-134620000D01*
X191389000Y-134620000D02*
X189992000Y-134620000D01*
X187960000Y-134239000D02*
X187579000Y-133985000D01*
X187579000Y-133985000D02*
X187198000Y-133604000D01*
X187198000Y-133604000D02*
X186944000Y-133096000D01*
X186944000Y-133096000D02*
X186690000Y-132334000D01*
X186690000Y-132334000D02*
X186690000Y-131953000D01*
X186690000Y-131953000D02*
X186817000Y-131318000D01*
X186817000Y-131318000D02*
X187198000Y-130556000D01*
X187198000Y-130556000D02*
X187452000Y-130302000D01*
X187452000Y-130302000D02*
X187833000Y-129921000D01*
X191389000Y-130683000D02*
X191008000Y-130302000D01*
X191008000Y-130302000D02*
X190754000Y-130048000D01*
X190754000Y-130048000D02*
X190627000Y-129921000D01*
X190500000Y-134239000D02*
X190754000Y-134112000D01*
X190754000Y-134112000D02*
X191135000Y-133731000D01*
X191135000Y-133731000D02*
X191516000Y-133223000D01*
X191516000Y-133223000D02*
X191643000Y-132842000D01*
X191643000Y-132842000D02*
X191770000Y-132334000D01*
X191770000Y-132334000D02*
X191770000Y-131953000D01*
X191770000Y-131953000D02*
X191643000Y-131318000D01*
X191643000Y-131318000D02*
X191389000Y-130683000D01*
X187325000Y-134620000D02*
X186944000Y-134239000D01*
X191389000Y-134493000D02*
X191643000Y-134112000D01*
X191643000Y-134112000D02*
X192024000Y-133604000D01*
X192024000Y-133604000D02*
X192278000Y-132969000D01*
X192278000Y-132969000D02*
X192405000Y-132334000D01*
X192405000Y-132334000D02*
X192405000Y-131826000D01*
X192405000Y-131826000D02*
X192278000Y-131191000D01*
X192278000Y-131191000D02*
X192024000Y-130556000D01*
X192024000Y-130556000D02*
X191643000Y-130048000D01*
X191643000Y-130048000D02*
X191135000Y-129540000D01*
X191135000Y-129540000D02*
X190500000Y-129159000D01*
X190500000Y-129159000D02*
X190119000Y-129032000D01*
X190119000Y-129032000D02*
X189484000Y-128905000D01*
X189484000Y-128905000D02*
X188849000Y-128905000D01*
X188849000Y-128905000D02*
X188341000Y-129032000D01*
X188341000Y-129032000D02*
X187706000Y-129286000D01*
X187706000Y-129286000D02*
X187198000Y-129667000D01*
X187198000Y-129667000D02*
X186690000Y-130175000D01*
X186690000Y-130175000D02*
X186436000Y-130556000D01*
X186436000Y-130556000D02*
X186182000Y-131191000D01*
X186182000Y-131191000D02*
X186055000Y-131826000D01*
X186055000Y-131826000D02*
X186055000Y-132461000D01*
X186055000Y-132461000D02*
X186182000Y-133096000D01*
X186182000Y-133096000D02*
X186563000Y-133858000D01*
X186563000Y-133858000D02*
X186944000Y-134239000D01*
X81280000Y-108585000D02*
X81280000Y-107442000D01*
X81280000Y-104521000D02*
X81280000Y-105918000D01*
X80899000Y-107950000D02*
X80645000Y-108331000D01*
X80645000Y-108331000D02*
X80264000Y-108712000D01*
X80264000Y-108712000D02*
X79756000Y-108966000D01*
X79756000Y-108966000D02*
X78994000Y-109220000D01*
X78994000Y-109220000D02*
X78613000Y-109220000D01*
X78613000Y-109220000D02*
X77978000Y-109093000D01*
X77978000Y-109093000D02*
X77216000Y-108712000D01*
X77216000Y-108712000D02*
X76962000Y-108458000D01*
X76962000Y-108458000D02*
X76581000Y-108077000D01*
X77343000Y-104521000D02*
X76962000Y-104902000D01*
X76962000Y-104902000D02*
X76708000Y-105156000D01*
X76708000Y-105156000D02*
X76581000Y-105283000D01*
X80899000Y-105410000D02*
X80772000Y-105156000D01*
X80772000Y-105156000D02*
X80391000Y-104775000D01*
X80391000Y-104775000D02*
X79883000Y-104394000D01*
X79883000Y-104394000D02*
X79502000Y-104267000D01*
X79502000Y-104267000D02*
X78994000Y-104140000D01*
X78994000Y-104140000D02*
X78613000Y-104140000D01*
X78613000Y-104140000D02*
X77978000Y-104267000D01*
X77978000Y-104267000D02*
X77343000Y-104521000D01*
X81280000Y-108585000D02*
X80899000Y-108966000D01*
X81153000Y-104521000D02*
X80772000Y-104267000D01*
X80772000Y-104267000D02*
X80264000Y-103886000D01*
X80264000Y-103886000D02*
X79629000Y-103632000D01*
X79629000Y-103632000D02*
X78994000Y-103505000D01*
X78994000Y-103505000D02*
X78486000Y-103505000D01*
X78486000Y-103505000D02*
X77851000Y-103632000D01*
X77851000Y-103632000D02*
X77216000Y-103886000D01*
X77216000Y-103886000D02*
X76708000Y-104267000D01*
X76708000Y-104267000D02*
X76200000Y-104775000D01*
X76200000Y-104775000D02*
X75819000Y-105410000D01*
X75819000Y-105410000D02*
X75692000Y-105791000D01*
X75692000Y-105791000D02*
X75565000Y-106426000D01*
X75565000Y-106426000D02*
X75565000Y-107061000D01*
X75565000Y-107061000D02*
X75692000Y-107569000D01*
X75692000Y-107569000D02*
X75946000Y-108204000D01*
X75946000Y-108204000D02*
X76327000Y-108712000D01*
X76327000Y-108712000D02*
X76835000Y-109220000D01*
X76835000Y-109220000D02*
X77216000Y-109474000D01*
X77216000Y-109474000D02*
X77851000Y-109728000D01*
X77851000Y-109728000D02*
X78486000Y-109855000D01*
X78486000Y-109855000D02*
X79121000Y-109855000D01*
X79121000Y-109855000D02*
X79756000Y-109728000D01*
X79756000Y-109728000D02*
X80518000Y-109347000D01*
X80518000Y-109347000D02*
X80899000Y-108966000D01*
X137740000Y-134310000D02*
X137740000Y-127310000D01*
X142240000Y-128310000D02*
X142240000Y-128810000D01*
X140740000Y-128310000D02*
X143740000Y-128310000D01*
X143740000Y-133310000D02*
X143240000Y-133310000D01*
X140740000Y-133310000D02*
X143240000Y-133310000D01*
X142240000Y-132810000D02*
X142240000Y-133310000D01*
X142240000Y-129810000D02*
X143740000Y-131810000D01*
X142740000Y-132310000D02*
G75*
G03X142740000Y-132310000I-500000J0D01*
G01*
X142740000Y-129310000D02*
G75*
G03X142740000Y-129310000I-500000J0D01*
G01*
X148240000Y-130810000D02*
G75*
G03X148240000Y-130810000I-6000000J0D01*
G01*
X112340000Y-134310000D02*
X112340000Y-127310000D01*
X116840000Y-128310000D02*
X116840000Y-128810000D01*
X115340000Y-128310000D02*
X118340000Y-128310000D01*
X118340000Y-133310000D02*
X117840000Y-133310000D01*
X115340000Y-133310000D02*
X117840000Y-133310000D01*
X116840000Y-132810000D02*
X116840000Y-133310000D01*
X116840000Y-129810000D02*
X118340000Y-131810000D01*
X117340000Y-132310000D02*
G75*
G03X117340000Y-132310000I-500000J0D01*
G01*
X117340000Y-129310000D02*
G75*
G03X117340000Y-129310000I-500000J0D01*
G01*
X122840000Y-130810000D02*
G75*
G03X122840000Y-130810000I-6000000J0D01*
G01*
X163140000Y-134310000D02*
X163140000Y-127310000D01*
X167640000Y-128310000D02*
X167640000Y-128810000D01*
X166140000Y-128310000D02*
X169140000Y-128310000D01*
X169140000Y-133310000D02*
X168640000Y-133310000D01*
X166140000Y-133310000D02*
X168640000Y-133310000D01*
X167640000Y-132810000D02*
X167640000Y-133310000D01*
X167640000Y-129810000D02*
X169140000Y-131810000D01*
X168140000Y-132310000D02*
G75*
G03X168140000Y-132310000I-500000J0D01*
G01*
X168140000Y-129310000D02*
G75*
G03X168140000Y-129310000I-500000J0D01*
G01*
X173640000Y-130810000D02*
G75*
G03X173640000Y-130810000I-6000000J0D01*
G01*
X144042776Y-113140000D02*
G75*
G03X144042776Y-113140000I-1802776J0D01*
G01*
X147240000Y-104140000D02*
G75*
G03X147240000Y-104140000I-5000000J0D01*
G01*
X145740000Y-114640000D02*
X145240000Y-114640000D01*
X144240000Y-116640000D02*
X144240000Y-114640000D01*
X144240000Y-114640000D02*
X145240000Y-114640000D01*
X140240000Y-116640000D02*
X140240000Y-114640000D01*
X140240000Y-114640000D02*
X138740000Y-114640000D01*
X144240000Y-116640000D02*
X140240000Y-116640000D01*
X135740000Y-114640000D02*
X134240000Y-114640000D01*
X134240000Y-114640000D02*
X134240000Y-105140000D01*
X150240000Y-105640000D02*
X150240000Y-114640000D01*
X150240000Y-114640000D02*
X148740000Y-114640000D01*
X150240000Y-105640000D02*
X150240000Y-105140000D01*
X150240000Y-102640000D02*
X150240000Y-102140000D01*
X134240000Y-102640000D02*
X134240000Y-95640000D01*
X134240000Y-95640000D02*
X150240000Y-95640000D01*
X150240000Y-95640000D02*
X150240000Y-102640000D01*
X89900000Y-112680000D02*
X92400000Y-112680000D01*
X92400000Y-112680000D02*
X92400000Y-100680000D01*
X92400000Y-100680000D02*
X89900000Y-100680000D01*
X87900000Y-100680000D02*
X85400000Y-100680000D01*
X85400000Y-100680000D02*
X85400000Y-112680000D01*
X85400000Y-112680000D02*
X87900000Y-112680000D01*
X180470000Y-43500000D02*
G75*
G03X180470000Y-43500000I-4500000J0D01*
G01*
X180497693Y-83500000D02*
G75*
G03X180497693Y-83500000I-4527693J0D01*
G01*
X110470000Y-83500000D02*
G75*
G03X110470000Y-83500000I-4500000J0D01*
G01*
X110497693Y-43500000D02*
G75*
G03X110497693Y-43500000I-4527693J0D01*
G01*
X178970000Y-47000000D02*
X102970000Y-47000000D01*
X102970000Y-47000000D02*
X102970000Y-80000000D01*
X102970000Y-80000000D02*
X178970000Y-80000000D01*
X178970000Y-80000000D02*
X178970000Y-47000000D01*
X179470000Y-40000000D02*
X179470000Y-87000000D01*
X179470000Y-87000000D02*
X102470000Y-87000000D01*
X102470000Y-87000000D02*
X102470000Y-40000000D01*
X102470000Y-40000000D02*
X179470000Y-40000000D01*
X94480000Y-47363000D02*
X93480000Y-46363000D01*
X94480000Y-46363000D02*
X93480000Y-47363000D01*
X95980000Y-47363000D02*
X95980000Y-44863000D01*
X95980000Y-44863000D02*
X94980000Y-44863000D01*
X93480000Y-48863000D02*
X94480000Y-48863000D01*
X92480000Y-44863000D02*
X91980000Y-44863000D01*
X91980000Y-44863000D02*
X91980000Y-47363000D01*
X92980000Y-44863000D02*
X92480000Y-44863000D01*
X183618095Y-56332381D02*
X183618095Y-55332381D01*
X183380000Y-55332381D01*
X183237142Y-55380000D01*
X183141904Y-55475238D01*
X183094285Y-55570476D01*
X183046666Y-55760952D01*
X183046666Y-55903810D01*
X183094285Y-56094286D01*
X183141904Y-56189524D01*
X183237142Y-56284762D01*
X183380000Y-56332381D01*
X183618095Y-56332381D01*
X182094285Y-56332381D02*
X182665714Y-56332381D01*
X182380000Y-56332381D02*
X182380000Y-55332381D01*
X182475238Y-55475238D01*
X182570476Y-55570476D01*
X182665714Y-55618095D01*
X187491667Y-58816905D02*
X187491667Y-59293096D01*
X187777381Y-58721667D02*
X186777381Y-59055000D01*
X187777381Y-59388334D01*
X190063429Y-58801048D02*
X190063429Y-59562953D01*
X190444381Y-59182001D02*
X189682476Y-59182001D01*
X183618095Y-94432381D02*
X183618095Y-93432381D01*
X183380000Y-93432381D01*
X183237142Y-93480000D01*
X183141904Y-93575238D01*
X183094285Y-93670476D01*
X183046666Y-93860952D01*
X183046666Y-94003810D01*
X183094285Y-94194286D01*
X183141904Y-94289524D01*
X183237142Y-94384762D01*
X183380000Y-94432381D01*
X183618095Y-94432381D01*
X182665714Y-93527619D02*
X182618095Y-93480000D01*
X182522857Y-93432381D01*
X182284761Y-93432381D01*
X182189523Y-93480000D01*
X182141904Y-93527619D01*
X182094285Y-93622857D01*
X182094285Y-93718095D01*
X182141904Y-93860952D01*
X182713333Y-94432381D01*
X182094285Y-94432381D01*
X187491667Y-96916905D02*
X187491667Y-97393096D01*
X187777381Y-96821667D02*
X186777381Y-97155000D01*
X187777381Y-97488334D01*
X190063429Y-96901048D02*
X190063429Y-97662953D01*
X190444381Y-97282001D02*
X189682476Y-97282001D01*
X184481695Y-114663481D02*
X184481695Y-113663481D01*
X184243600Y-113663481D01*
X184100742Y-113711100D01*
X184005504Y-113806338D01*
X183957885Y-113901576D01*
X183910266Y-114092052D01*
X183910266Y-114234910D01*
X183957885Y-114425386D01*
X184005504Y-114520624D01*
X184100742Y-114615862D01*
X184243600Y-114663481D01*
X184481695Y-114663481D01*
X183576933Y-113663481D02*
X182957885Y-113663481D01*
X183291219Y-114044433D01*
X183148361Y-114044433D01*
X183053123Y-114092052D01*
X183005504Y-114139671D01*
X182957885Y-114234910D01*
X182957885Y-114473005D01*
X183005504Y-114568243D01*
X183053123Y-114615862D01*
X183148361Y-114663481D01*
X183434076Y-114663481D01*
X183529314Y-114615862D01*
X183576933Y-114568243D01*
X187491667Y-115966905D02*
X187491667Y-116443096D01*
X187777381Y-115871667D02*
X186777381Y-116205000D01*
X187777381Y-116538334D01*
X190063429Y-115951048D02*
X190063429Y-116712953D01*
X190444381Y-116332001D02*
X189682476Y-116332001D01*
X183618095Y-75382381D02*
X183618095Y-74382381D01*
X183380000Y-74382381D01*
X183237142Y-74430000D01*
X183141904Y-74525238D01*
X183094285Y-74620476D01*
X183046666Y-74810952D01*
X183046666Y-74953810D01*
X183094285Y-75144286D01*
X183141904Y-75239524D01*
X183237142Y-75334762D01*
X183380000Y-75382381D01*
X183618095Y-75382381D01*
X182189523Y-74715714D02*
X182189523Y-75382381D01*
X182427619Y-74334762D02*
X182665714Y-75049048D01*
X182046666Y-75049048D01*
X187491667Y-77866905D02*
X187491667Y-78343096D01*
X187777381Y-77771667D02*
X186777381Y-78105000D01*
X187777381Y-78438334D01*
X190063429Y-77851048D02*
X190063429Y-78612953D01*
X190444381Y-78232001D02*
X189682476Y-78232001D01*
X183618095Y-132532381D02*
X183618095Y-131532381D01*
X183380000Y-131532381D01*
X183237142Y-131580000D01*
X183141904Y-131675238D01*
X183094285Y-131770476D01*
X183046666Y-131960952D01*
X183046666Y-132103810D01*
X183094285Y-132294286D01*
X183141904Y-132389524D01*
X183237142Y-132484762D01*
X183380000Y-132532381D01*
X183618095Y-132532381D01*
X182141904Y-131532381D02*
X182618095Y-131532381D01*
X182665714Y-132008571D01*
X182618095Y-131960952D01*
X182522857Y-131913333D01*
X182284761Y-131913333D01*
X182189523Y-131960952D01*
X182141904Y-132008571D01*
X182094285Y-132103810D01*
X182094285Y-132341905D01*
X182141904Y-132437143D01*
X182189523Y-132484762D01*
X182284761Y-132532381D01*
X182522857Y-132532381D01*
X182618095Y-132484762D01*
X182665714Y-132437143D01*
X187491667Y-135016905D02*
X187491667Y-135493096D01*
X187777381Y-134921667D02*
X186777381Y-135255000D01*
X187777381Y-135588334D01*
X190063429Y-135001048D02*
X190063429Y-135762953D01*
X190444381Y-135382001D02*
X189682476Y-135382001D01*
X75668095Y-103322381D02*
X75668095Y-102322381D01*
X75430000Y-102322381D01*
X75287142Y-102370000D01*
X75191904Y-102465238D01*
X75144285Y-102560476D01*
X75096666Y-102750952D01*
X75096666Y-102893810D01*
X75144285Y-103084286D01*
X75191904Y-103179524D01*
X75287142Y-103274762D01*
X75430000Y-103322381D01*
X75668095Y-103322381D01*
X74239523Y-102322381D02*
X74430000Y-102322381D01*
X74525238Y-102370000D01*
X74572857Y-102417619D01*
X74668095Y-102560476D01*
X74715714Y-102750952D01*
X74715714Y-103131905D01*
X74668095Y-103227143D01*
X74620476Y-103274762D01*
X74525238Y-103322381D01*
X74334761Y-103322381D01*
X74239523Y-103274762D01*
X74191904Y-103227143D01*
X74144285Y-103131905D01*
X74144285Y-102893810D01*
X74191904Y-102798571D01*
X74239523Y-102750952D01*
X74334761Y-102703333D01*
X74525238Y-102703333D01*
X74620476Y-102750952D01*
X74668095Y-102798571D01*
X74715714Y-102893810D01*
X82153095Y-108751667D02*
X81676904Y-108751667D01*
X82248333Y-109037381D02*
X81915000Y-108037381D01*
X81581666Y-109037381D01*
X82422952Y-105989429D02*
X81661047Y-105989429D01*
X82041999Y-106370381D02*
X82041999Y-105608476D01*
X143573333Y-123594762D02*
X143430476Y-123642381D01*
X143192380Y-123642381D01*
X143097142Y-123594762D01*
X143049523Y-123547143D01*
X143001904Y-123451905D01*
X143001904Y-123356667D01*
X143049523Y-123261429D01*
X143097142Y-123213810D01*
X143192380Y-123166190D01*
X143382857Y-123118571D01*
X143478095Y-123070952D01*
X143525714Y-123023333D01*
X143573333Y-122928095D01*
X143573333Y-122832857D01*
X143525714Y-122737619D01*
X143478095Y-122690000D01*
X143382857Y-122642381D01*
X143144761Y-122642381D01*
X143001904Y-122690000D01*
X142668571Y-122642381D02*
X142430476Y-123642381D01*
X142239999Y-122928095D01*
X142049523Y-123642381D01*
X141811428Y-122642381D01*
X140906666Y-123642381D02*
X141478095Y-123642381D01*
X141192381Y-123642381D02*
X141192381Y-122642381D01*
X141287619Y-122785238D01*
X141382857Y-122880476D01*
X141478095Y-122928095D01*
X118173333Y-123594762D02*
X118030476Y-123642381D01*
X117792380Y-123642381D01*
X117697142Y-123594762D01*
X117649523Y-123547143D01*
X117601904Y-123451905D01*
X117601904Y-123356667D01*
X117649523Y-123261429D01*
X117697142Y-123213810D01*
X117792380Y-123166190D01*
X117982857Y-123118571D01*
X118078095Y-123070952D01*
X118125714Y-123023333D01*
X118173333Y-122928095D01*
X118173333Y-122832857D01*
X118125714Y-122737619D01*
X118078095Y-122690000D01*
X117982857Y-122642381D01*
X117744761Y-122642381D01*
X117601904Y-122690000D01*
X117268571Y-122642381D02*
X117030476Y-123642381D01*
X116839999Y-122928095D01*
X116649523Y-123642381D01*
X116411428Y-122642381D01*
X116078095Y-122737619D02*
X116030476Y-122690000D01*
X115935238Y-122642381D01*
X115697142Y-122642381D01*
X115601904Y-122690000D01*
X115554285Y-122737619D01*
X115506666Y-122832857D01*
X115506666Y-122928095D01*
X115554285Y-123070952D01*
X116125714Y-123642381D01*
X115506666Y-123642381D01*
X168973333Y-123594762D02*
X168830476Y-123642381D01*
X168592380Y-123642381D01*
X168497142Y-123594762D01*
X168449523Y-123547143D01*
X168401904Y-123451905D01*
X168401904Y-123356667D01*
X168449523Y-123261429D01*
X168497142Y-123213810D01*
X168592380Y-123166190D01*
X168782857Y-123118571D01*
X168878095Y-123070952D01*
X168925714Y-123023333D01*
X168973333Y-122928095D01*
X168973333Y-122832857D01*
X168925714Y-122737619D01*
X168878095Y-122690000D01*
X168782857Y-122642381D01*
X168544761Y-122642381D01*
X168401904Y-122690000D01*
X168068571Y-122642381D02*
X167830476Y-123642381D01*
X167639999Y-122928095D01*
X167449523Y-123642381D01*
X167211428Y-122642381D01*
X166925714Y-122642381D02*
X166306666Y-122642381D01*
X166640000Y-123023333D01*
X166497142Y-123023333D01*
X166401904Y-123070952D01*
X166354285Y-123118571D01*
X166306666Y-123213810D01*
X166306666Y-123451905D01*
X166354285Y-123547143D01*
X166401904Y-123594762D01*
X166497142Y-123642381D01*
X166782857Y-123642381D01*
X166878095Y-123594762D01*
X166925714Y-123547143D01*
X133413333Y-99464762D02*
X133270476Y-99512381D01*
X133032380Y-99512381D01*
X132937142Y-99464762D01*
X132889523Y-99417143D01*
X132841904Y-99321905D01*
X132841904Y-99226667D01*
X132889523Y-99131429D01*
X132937142Y-99083810D01*
X133032380Y-99036190D01*
X133222857Y-98988571D01*
X133318095Y-98940952D01*
X133365714Y-98893333D01*
X133413333Y-98798095D01*
X133413333Y-98702857D01*
X133365714Y-98607619D01*
X133318095Y-98560000D01*
X133222857Y-98512381D01*
X132984761Y-98512381D01*
X132841904Y-98560000D01*
X132508571Y-98512381D02*
X132270476Y-99512381D01*
X132079999Y-98798095D01*
X131889523Y-99512381D01*
X131651428Y-98512381D01*
X130841904Y-98845714D02*
X130841904Y-99512381D01*
X131080000Y-98464762D02*
X131318095Y-99179048D01*
X130699047Y-99179048D01*
X90233333Y-99464762D02*
X90090476Y-99512381D01*
X89852380Y-99512381D01*
X89757142Y-99464762D01*
X89709523Y-99417143D01*
X89661904Y-99321905D01*
X89661904Y-99226667D01*
X89709523Y-99131429D01*
X89757142Y-99083810D01*
X89852380Y-99036190D01*
X90042857Y-98988571D01*
X90138095Y-98940952D01*
X90185714Y-98893333D01*
X90233333Y-98798095D01*
X90233333Y-98702857D01*
X90185714Y-98607619D01*
X90138095Y-98560000D01*
X90042857Y-98512381D01*
X89804761Y-98512381D01*
X89661904Y-98560000D01*
X89328571Y-98512381D02*
X89090476Y-99512381D01*
X88899999Y-98798095D01*
X88709523Y-99512381D01*
X88471428Y-98512381D01*
X87614285Y-98512381D02*
X88090476Y-98512381D01*
X88138095Y-98988571D01*
X88090476Y-98940952D01*
X87995238Y-98893333D01*
X87757142Y-98893333D01*
X87661904Y-98940952D01*
X87614285Y-98988571D01*
X87566666Y-99083810D01*
X87566666Y-99321905D01*
X87614285Y-99417143D01*
X87661904Y-99464762D01*
X87757142Y-99512381D01*
X87995238Y-99512381D01*
X88090476Y-99464762D01*
X88138095Y-99417143D01*
X141731905Y-37952381D02*
X141731905Y-38761905D01*
X141684286Y-38857143D01*
X141636667Y-38904762D01*
X141541429Y-38952381D01*
X141350952Y-38952381D01*
X141255714Y-38904762D01*
X141208095Y-38857143D01*
X141160476Y-38761905D01*
X141160476Y-37952381D01*
X140160476Y-38952381D02*
X140731905Y-38952381D01*
X140446191Y-38952381D02*
X140446191Y-37952381D01*
X140541429Y-38095238D01*
X140636667Y-38190476D01*
X140731905Y-38238095D01*
X94575238Y-43815381D02*
X94908572Y-43339190D01*
X95146667Y-43815381D02*
X95146667Y-42815381D01*
X94765714Y-42815381D01*
X94670476Y-42863000D01*
X94622857Y-42910619D01*
X94575238Y-43005857D01*
X94575238Y-43148714D01*
X94622857Y-43243952D01*
X94670476Y-43291571D01*
X94765714Y-43339190D01*
X95146667Y-43339190D01*
X94289524Y-42815381D02*
X93956191Y-43815381D01*
X93622857Y-42815381D01*
X92765714Y-43815381D02*
X93337143Y-43815381D01*
X93051429Y-43815381D02*
X93051429Y-42815381D01*
X93146667Y-42958238D01*
X93241905Y-43053476D01*
X93337143Y-43101095D01*
M02*
