M48
;DRILL file {kicad 0.201503150816+5513~22~ubuntu14.04.1-product} date Thu 23 Apr 2015 07:27:02 PM EDT
;FORMAT={-:-/ absolute / inch / decimal}
FMAT,2
INCH,TZ
T1C0.016
T2C0.025
T3C0.030
T4C0.039
T5C0.039
T6C0.040
T7C0.049
T8C0.051
T9C0.063
T10C0.073
T11C0.138
%
G90
G05
M72
T1
X2.79Y-3.09
X3.065Y-3.18
X3.22Y-3.145
X3.51Y-4.935
X3.56Y-5.015
X3.56Y-5.055
X3.605Y-5.04
X3.69Y-3.72
X3.695Y-4.765
X3.735Y-4.765
X3.745Y-3.59
X3.785Y-3.535
X3.785Y-4.69
X3.835Y-3.495
X3.84Y-4.735
X3.88Y-5.02
X3.895Y-4.785
X3.9Y-3.445
X4.05Y-4.64
X4.105Y-4.2
X4.83Y-2.695
X4.84Y-2.425
X4.845Y-5.255
X4.875Y-2.905
X4.885Y-2.715
X5.025Y-2.645
X5.03Y-5.255
X5.06Y-2.745
X5.08Y-5.33
X5.13Y-2.245
X5.14Y-2.045
X5.145Y-2.83
X5.145Y-3.4
X5.18Y-3.37
X5.185Y-2.83
X5.225Y-2.85
X5.225Y-3.325
X5.27Y-2.315
X5.3Y-2.04
X5.3Y-2.36
X5.33Y-2.4
X5.355Y-2.32
X5.375Y-2.7
X5.375Y-2.75
X5.375Y-2.8
X5.375Y-2.835
X5.38Y-2.955
X5.38Y-3.29
X5.47Y-2.185
X5.47Y-3.695
X5.475Y-3.075
X5.49Y-2.815
X5.495Y-2.22
X5.5Y-3.04
X5.5Y-3.58
X5.51Y-2.255
X5.52Y-2.835
X5.54Y-3.04
X5.54Y-3.45
X5.59Y-2.4
X5.605Y-2.8
X5.61Y-1.89
X5.63Y-3.335
X5.63Y-3.44
X5.64Y-3.265
X5.67Y-2.38
X5.695Y-2.155
X5.815Y-1.945
X5.85Y-3.495
X5.86Y-2.665
X5.885Y-3.53
X5.895Y-2.685
X5.94Y-2.655
X5.94Y-2.86
X5.96Y-2.54
X5.975Y-2.84
X5.98Y-2.61
X6.015Y-2.825
X6.02Y-2.56
X6.055Y-2.805
X6.06Y-2.515
X6.095Y-2.78
X6.1Y-2.46
X6.135Y-2.755
X6.135Y-5.305
X6.165Y-2.725
X6.185Y-3.61
X6.195Y-2.695
X6.21Y-3.325
X6.235Y-2.705
X6.24Y-3.245
X6.265Y-2.755
X6.27Y-2.805
X6.345Y-2.43
X6.35Y-3.295
X6.37Y-3.405
X6.38Y-2.445
X6.405Y-1.75
X6.415Y-2.445
X6.415Y-3.445
X6.765Y-3.715
X6.845Y-3.54
T2
X2.51Y-3.76
X2.77Y-3.585
X2.785Y-4.195
X2.875Y-3.31
X2.975Y-3.455
X3.155Y-3.58
X3.2Y-3.235
X3.225Y-4.855
X3.235Y-2.875
X3.24Y-2.945
X3.275Y-2.91
X3.275Y-5.185
X3.32Y-5.205
X3.335Y-5.31
X3.375Y-4.59
X3.38Y-4.535
X3.455Y-5.69
X3.49Y-5.145
X3.59Y-2.715
X3.595Y-3.54
X3.6Y-5.15
X3.605Y-4.965
X3.655Y-2.04
X3.655Y-3.76
X3.695Y-3.655
X3.75Y-5.29
X3.75Y-5.38
X3.795Y-1.985
X3.815Y-4.845
X3.87Y-5.58
X3.875Y-4.965
X3.8969Y-5.1031
X3.91Y-2.46
X4.065Y-5.59
X4.17Y-5.54
X4.175Y-2.965
X4.47Y-2.33
X4.5Y-2.095
X4.57Y-2.18
X4.57Y-2.28
X4.93Y-3.94
X4.94Y-3.355
X5.13Y-2.18
X5.145Y-4.47
X5.205Y-4.51
X5.415Y-2.67
X5.48Y-2.63
X5.6Y-5.62
X5.61Y-2.085
X5.82Y-2.645
X5.825Y-3.735
X5.885Y-2.08
X6.065Y-3.645
X6.28Y-5.915
X6.47Y-1.845
X6.47Y-3.2
X6.49Y-3.745
X6.56Y-2.08
X6.615Y-2.755
X6.68Y-2.605
X6.995Y-2.92
X7.06Y-2.86
X7.445Y-3.13
T3
X2.85Y-2.0008
X2.85Y-2.0992
X2.9Y-2.8508
X2.9Y-2.9492
X3.Y-1.5008
X3.Y-1.5992
X3.15Y-2.6016
X3.15Y-2.7
X3.15Y-2.7984
X3.64Y-5.4658
X3.64Y-5.5642
T4
X3.15Y-1.9346
X3.15Y-2.0449
X3.15Y-2.1551
X3.15Y-2.2654
X5.172Y-1.6732
X5.272Y-1.6732
X5.372Y-1.6732
X5.472Y-1.6732
X5.572Y-1.6732
X5.672Y-1.6732
X5.772Y-1.6732
X5.872Y-1.6732
X5.972Y-1.6732
X6.072Y-1.6732
X6.172Y-1.6732
X6.272Y-1.6732
X6.372Y-1.6732
X6.472Y-1.6732
X6.572Y-1.6732
X6.672Y-1.6732
X7.9268Y-1.9657
X7.9268Y-2.4382
X7.9268Y-2.7157
X7.9268Y-3.1882
X7.9268Y-3.4657
X7.9268Y-3.9382
X7.9268Y-4.2157
X7.9268Y-4.6882
X7.9268Y-4.9657
X7.9268Y-5.4382
T5
X3.05Y-4.2
X3.15Y-4.2
X4.75Y-1.45
X5.15Y-1.45
X7.45Y-2.15
X7.45Y-2.25
X7.45Y-2.9
X7.45Y-3.
X7.45Y-3.65
X7.45Y-3.75
X7.45Y-4.4
X7.45Y-4.5
X7.45Y-5.15
X7.45Y-5.25
T6
X2.3Y-2.6
X2.3Y-2.7
X2.3Y-2.8
X2.3Y-2.9
X2.3Y-3.
X2.3Y-3.1
X2.3Y-3.5
X2.3Y-3.6
X2.3Y-3.7
X2.3Y-3.8
X2.3Y-4.25
X2.3Y-4.35
X2.3Y-4.45
X2.3Y-4.55
X2.3Y-4.65
X2.4Y-4.25
X2.4Y-4.35
X2.4Y-4.45
X2.4Y-4.55
X2.4Y-4.65
X4.045Y-5.105
X4.05Y-4.85
X4.145Y-5.105
X4.15Y-4.85
X4.245Y-5.105
X4.25Y-4.85
X6.05Y-5.45
X6.15Y-5.45
X6.25Y-5.45
T7
X4.5016Y-5.0516
X4.5016Y-5.2484
X4.6984Y-5.0516
X4.6984Y-5.2484
X5.4031Y-4.5134
X5.5016Y-3.8244
X5.5016Y-5.0516
X5.5016Y-5.2484
X5.6Y-4.5134
X5.6984Y-3.8244
X5.6984Y-5.0516
X5.6984Y-5.2484
X5.7969Y-4.5134
X6.5016Y-5.0516
X6.5016Y-5.2484
X6.6984Y-5.0516
X6.6984Y-5.2484
T8
X7.85Y-2.2
X7.85Y-2.95
X7.85Y-3.7
X7.85Y-4.45
X7.85Y-5.2
X8.4071Y-2.4382
X8.4071Y-3.1882
X8.4071Y-3.9382
X8.4071Y-4.6882
X8.4071Y-5.4382
X8.4091Y-1.9638
X8.4091Y-2.7138
X8.4091Y-3.4638
X8.4091Y-4.2138
X8.4091Y-4.9638
T9
X2.6547Y-5.85
X2.8516Y-5.85
X3.0484Y-5.85
X3.2453Y-5.85
X3.6047Y-5.85
X3.8016Y-5.85
X3.9984Y-5.85
X4.1953Y-5.85
X4.5547Y-5.85
X4.7516Y-5.85
X4.9484Y-5.85
X5.1453Y-5.85
X5.5047Y-5.85
X5.7016Y-5.85
X5.8984Y-5.85
X6.0953Y-5.85
X6.4531Y-5.85
X6.65Y-5.85
X6.8469Y-5.85
X7.2031Y-5.85
X7.4Y-5.85
X7.5969Y-5.85
X7.9547Y-5.85
X8.1516Y-5.85
X8.3484Y-5.85
X8.5453Y-5.85
X8.8Y-2.05
X8.8Y-2.35
X8.8Y-2.8
X8.8Y-3.1
X8.8Y-3.55
X8.8Y-3.85
X8.8Y-4.3
X8.8Y-4.6
X8.8Y-5.05
X8.8Y-5.35
T10
X3.5Y-4.015
X3.5Y-4.2
X3.5Y-4.385
T11
X2.2819Y-1.9
X2.4Y-2.085
X2.5181Y-1.9
T0
M30
