G04 #@! TF.FileFunction,Soldermask,Top*
%FSLAX46Y46*%
G04 Gerber Fmt 4.6, Leading zero omitted, Abs format (unit mm)*
G04 Created by KiCad (PCBNEW 0.201503150816+5513~22~ubuntu14.04.1-product) date Thu 23 Apr 2015 07:30:57 PM EDT*
%MOMM*%
G01*
G04 APERTURE LIST*
%ADD10C,0.100000*%
%ADD11C,0.300000*%
%ADD12C,4.000000*%
%ADD13R,1.300000X1.500000*%
%ADD14R,1.524000X1.524000*%
%ADD15C,1.524000*%
%ADD16C,1.998980*%
%ADD17R,1.699260X1.699260*%
%ADD18R,1.727200X2.032000*%
%ADD19O,1.727200X2.032000*%
%ADD20C,2.500000*%
%ADD21C,3.000000*%
%ADD22R,2.032000X1.727200*%
%ADD23O,2.032000X1.727200*%
%ADD24C,4.500000*%
%ADD25R,1.500000X1.300000*%
%ADD26C,2.200000*%
%ADD27C,2.000000*%
%ADD28C,1.800000*%
%ADD29R,1.800000X1.800000*%
%ADD30R,1.100000X0.400000*%
%ADD31O,0.609600X1.473200*%
%ADD32C,1.500000*%
%ADD33R,1.500000X1.500000*%
%ADD34R,1.727200X1.727200*%
%ADD35O,1.727200X1.727200*%
%ADD36R,1.300000X0.250000*%
%ADD37R,0.250000X1.300000*%
%ADD38R,0.600000X1.550000*%
%ADD39R,1.143000X0.508000*%
%ADD40R,1.300000X1.900000*%
G04 APERTURE END LIST*
D10*
D11*
X197772000Y-36204000D02*
X198486286Y-36204000D01*
X197629143Y-36632571D02*
X198129143Y-35132571D01*
X198629143Y-36632571D01*
X199129143Y-35132571D02*
X199129143Y-36346857D01*
X199200571Y-36489714D01*
X199272000Y-36561143D01*
X199414857Y-36632571D01*
X199700571Y-36632571D01*
X199843429Y-36561143D01*
X199914857Y-36489714D01*
X199986286Y-36346857D01*
X199986286Y-35132571D01*
X200486286Y-35132571D02*
X201343429Y-35132571D01*
X200914858Y-36632571D02*
X200914858Y-35132571D01*
X202129143Y-35132571D02*
X202414857Y-35132571D01*
X202557715Y-35204000D01*
X202700572Y-35346857D01*
X202772000Y-35632571D01*
X202772000Y-36132571D01*
X202700572Y-36418286D01*
X202557715Y-36561143D01*
X202414857Y-36632571D01*
X202129143Y-36632571D01*
X201986286Y-36561143D01*
X201843429Y-36418286D01*
X201772000Y-36132571D01*
X201772000Y-35632571D01*
X201843429Y-35346857D01*
X201986286Y-35204000D01*
X202129143Y-35132571D01*
X203414858Y-36632571D02*
X203414858Y-35132571D01*
X204272001Y-36632571D02*
X203629144Y-35775429D01*
X204272001Y-35132571D02*
X203414858Y-35989714D01*
X204914858Y-36632571D02*
X204914858Y-35132571D01*
X206343430Y-36632571D02*
X205629144Y-36632571D01*
X205629144Y-35132571D01*
X206843430Y-36632571D02*
X206843430Y-35132571D01*
X207700573Y-36632571D01*
X207700573Y-35132571D01*
X212700573Y-36632571D02*
X212200573Y-35918286D01*
X211843430Y-36632571D02*
X211843430Y-35132571D01*
X212414858Y-35132571D01*
X212557716Y-35204000D01*
X212629144Y-35275429D01*
X212700573Y-35418286D01*
X212700573Y-35632571D01*
X212629144Y-35775429D01*
X212557716Y-35846857D01*
X212414858Y-35918286D01*
X211843430Y-35918286D01*
X213343430Y-35846857D02*
X213843430Y-35846857D01*
X214057716Y-36632571D02*
X213343430Y-36632571D01*
X213343430Y-35132571D01*
X214057716Y-35132571D01*
X214486287Y-35132571D02*
X214986287Y-36632571D01*
X215486287Y-35132571D01*
X217057715Y-36204000D02*
X217772001Y-36204000D01*
X216914858Y-36632571D02*
X217414858Y-35132571D01*
X217914858Y-36632571D01*
X201272000Y-38889714D02*
X201200571Y-38961143D01*
X200986285Y-39032571D01*
X200843428Y-39032571D01*
X200629143Y-38961143D01*
X200486285Y-38818286D01*
X200414857Y-38675429D01*
X200343428Y-38389714D01*
X200343428Y-38175429D01*
X200414857Y-37889714D01*
X200486285Y-37746857D01*
X200629143Y-37604000D01*
X200843428Y-37532571D01*
X200986285Y-37532571D01*
X201200571Y-37604000D01*
X201272000Y-37675429D01*
X201914857Y-39032571D02*
X201914857Y-37532571D01*
X201914857Y-38246857D02*
X202772000Y-38246857D01*
X202772000Y-39032571D02*
X202772000Y-37532571D01*
X204343429Y-39032571D02*
X203843429Y-38318286D01*
X203486286Y-39032571D02*
X203486286Y-37532571D01*
X204057714Y-37532571D01*
X204200572Y-37604000D01*
X204272000Y-37675429D01*
X204343429Y-37818286D01*
X204343429Y-38032571D01*
X204272000Y-38175429D01*
X204200572Y-38246857D01*
X204057714Y-38318286D01*
X203486286Y-38318286D01*
X204986286Y-39032571D02*
X204986286Y-37532571D01*
X205629143Y-38961143D02*
X205843429Y-39032571D01*
X206200572Y-39032571D01*
X206343429Y-38961143D01*
X206414858Y-38889714D01*
X206486286Y-38746857D01*
X206486286Y-38604000D01*
X206414858Y-38461143D01*
X206343429Y-38389714D01*
X206200572Y-38318286D01*
X205914858Y-38246857D01*
X205772000Y-38175429D01*
X205700572Y-38104000D01*
X205629143Y-37961143D01*
X205629143Y-37818286D01*
X205700572Y-37675429D01*
X205772000Y-37604000D01*
X205914858Y-37532571D01*
X206272000Y-37532571D01*
X206486286Y-37604000D01*
X208272000Y-39032571D02*
X208272000Y-37532571D01*
X208772000Y-38604000D01*
X209272000Y-37532571D01*
X209272000Y-39032571D01*
X209986286Y-38246857D02*
X210486286Y-38246857D01*
X210700572Y-39032571D02*
X209986286Y-39032571D01*
X209986286Y-37532571D01*
X210700572Y-37532571D01*
X212200572Y-39032571D02*
X211700572Y-38318286D01*
X211343429Y-39032571D02*
X211343429Y-37532571D01*
X211914857Y-37532571D01*
X212057715Y-37604000D01*
X212129143Y-37675429D01*
X212200572Y-37818286D01*
X212200572Y-38032571D01*
X212129143Y-38175429D01*
X212057715Y-38246857D01*
X211914857Y-38318286D01*
X211343429Y-38318286D01*
X213700572Y-38889714D02*
X213629143Y-38961143D01*
X213414857Y-39032571D01*
X213272000Y-39032571D01*
X213057715Y-38961143D01*
X212914857Y-38818286D01*
X212843429Y-38675429D01*
X212772000Y-38389714D01*
X212772000Y-38175429D01*
X212843429Y-37889714D01*
X212914857Y-37746857D01*
X213057715Y-37604000D01*
X213272000Y-37532571D01*
X213414857Y-37532571D01*
X213629143Y-37604000D01*
X213700572Y-37675429D01*
X214343429Y-39032571D02*
X214343429Y-37532571D01*
X215200572Y-39032571D02*
X214557715Y-38175429D01*
X215200572Y-37532571D02*
X214343429Y-38389714D01*
X200486287Y-40075429D02*
X200557716Y-40004000D01*
X200700573Y-39932571D01*
X201057716Y-39932571D01*
X201200573Y-40004000D01*
X201272002Y-40075429D01*
X201343430Y-40218286D01*
X201343430Y-40361143D01*
X201272002Y-40575429D01*
X200414859Y-41432571D01*
X201343430Y-41432571D01*
X201843430Y-39932571D02*
X202772001Y-39932571D01*
X202272001Y-40504000D01*
X202486287Y-40504000D01*
X202629144Y-40575429D01*
X202700573Y-40646857D01*
X202772001Y-40789714D01*
X202772001Y-41146857D01*
X202700573Y-41289714D01*
X202629144Y-41361143D01*
X202486287Y-41432571D01*
X202057715Y-41432571D01*
X201914858Y-41361143D01*
X201843430Y-41289714D01*
X204486286Y-41004000D02*
X205200572Y-41004000D01*
X204343429Y-41432571D02*
X204843429Y-39932571D01*
X205343429Y-41432571D01*
X205843429Y-41432571D02*
X205843429Y-39932571D01*
X206414857Y-39932571D01*
X206557715Y-40004000D01*
X206629143Y-40075429D01*
X206700572Y-40218286D01*
X206700572Y-40432571D01*
X206629143Y-40575429D01*
X206557715Y-40646857D01*
X206414857Y-40718286D01*
X205843429Y-40718286D01*
X208200572Y-41432571D02*
X207700572Y-40718286D01*
X207343429Y-41432571D02*
X207343429Y-39932571D01*
X207914857Y-39932571D01*
X208057715Y-40004000D01*
X208129143Y-40075429D01*
X208200572Y-40218286D01*
X208200572Y-40432571D01*
X208129143Y-40575429D01*
X208057715Y-40646857D01*
X207914857Y-40718286D01*
X207343429Y-40718286D01*
X209914857Y-40075429D02*
X209986286Y-40004000D01*
X210129143Y-39932571D01*
X210486286Y-39932571D01*
X210629143Y-40004000D01*
X210700572Y-40075429D01*
X210772000Y-40218286D01*
X210772000Y-40361143D01*
X210700572Y-40575429D01*
X209843429Y-41432571D01*
X210772000Y-41432571D01*
X211700571Y-39932571D02*
X211843428Y-39932571D01*
X211986285Y-40004000D01*
X212057714Y-40075429D01*
X212129143Y-40218286D01*
X212200571Y-40504000D01*
X212200571Y-40861143D01*
X212129143Y-41146857D01*
X212057714Y-41289714D01*
X211986285Y-41361143D01*
X211843428Y-41432571D01*
X211700571Y-41432571D01*
X211557714Y-41361143D01*
X211486285Y-41289714D01*
X211414857Y-41146857D01*
X211343428Y-40861143D01*
X211343428Y-40504000D01*
X211414857Y-40218286D01*
X211486285Y-40075429D01*
X211557714Y-40004000D01*
X211700571Y-39932571D01*
X213629142Y-41432571D02*
X212771999Y-41432571D01*
X213200571Y-41432571D02*
X213200571Y-39932571D01*
X213057714Y-40146857D01*
X212914856Y-40289714D01*
X212771999Y-40361143D01*
X214986285Y-39932571D02*
X214271999Y-39932571D01*
X214200570Y-40646857D01*
X214271999Y-40575429D01*
X214414856Y-40504000D01*
X214771999Y-40504000D01*
X214914856Y-40575429D01*
X214986285Y-40646857D01*
X215057713Y-40789714D01*
X215057713Y-41146857D01*
X214986285Y-41289714D01*
X214914856Y-41361143D01*
X214771999Y-41432571D01*
X214414856Y-41432571D01*
X214271999Y-41361143D01*
X214200570Y-41289714D01*
D12*
X57150000Y-38100000D03*
X57150000Y-152400000D03*
X227330000Y-38100000D03*
D13*
X83820000Y-120570000D03*
X83820000Y-123270000D03*
X82550000Y-126920000D03*
X82550000Y-129620000D03*
X96520000Y-126920000D03*
X96520000Y-129620000D03*
X87630000Y-87710000D03*
X87630000Y-85010000D03*
D14*
X76200000Y-38120000D03*
D15*
X76200000Y-40620000D03*
D13*
X73660000Y-64690000D03*
X73660000Y-67390000D03*
D14*
X73660000Y-74910000D03*
D15*
X73660000Y-72410000D03*
D14*
X72390000Y-50820000D03*
D15*
X72390000Y-53320000D03*
D14*
X92456000Y-138831000D03*
D15*
X92456000Y-141331000D03*
D16*
X189230000Y-57150000D03*
D17*
X189230000Y-54610000D03*
D16*
X189230000Y-95250000D03*
D17*
X189230000Y-92710000D03*
D16*
X189230000Y-114300000D03*
D17*
X189230000Y-111760000D03*
D16*
X189230000Y-76200000D03*
D17*
X189230000Y-73660000D03*
D16*
X189230000Y-133350000D03*
D17*
X189230000Y-130810000D03*
D16*
X80010000Y-106680000D03*
D17*
X77470000Y-106680000D03*
D18*
X102870000Y-123190000D03*
D19*
X105410000Y-123190000D03*
X107950000Y-123190000D03*
D18*
X107823000Y-129667000D03*
D19*
X105283000Y-129667000D03*
X102743000Y-129667000D03*
D18*
X153670000Y-138430000D03*
D19*
X156210000Y-138430000D03*
X158750000Y-138430000D03*
D20*
X201340000Y-61930000D03*
D21*
X213540000Y-61930000D03*
X213590000Y-49880000D03*
D20*
X201340000Y-49930000D03*
D21*
X199390000Y-55880000D03*
D20*
X201340000Y-80980000D03*
D21*
X213540000Y-80980000D03*
X213590000Y-68930000D03*
D20*
X201340000Y-68980000D03*
D21*
X199390000Y-74930000D03*
D20*
X201340000Y-100030000D03*
D21*
X213540000Y-100030000D03*
X213590000Y-87980000D03*
D20*
X201340000Y-88030000D03*
D21*
X199390000Y-93980000D03*
D20*
X201340000Y-138130000D03*
D21*
X213540000Y-138130000D03*
X213590000Y-126080000D03*
D20*
X201340000Y-126130000D03*
D21*
X199390000Y-132080000D03*
D20*
X201340000Y-119080000D03*
D21*
X213540000Y-119080000D03*
X213590000Y-107030000D03*
D20*
X201340000Y-107080000D03*
D21*
X199390000Y-113030000D03*
D22*
X58420000Y-88900000D03*
D23*
X58420000Y-91440000D03*
X58420000Y-93980000D03*
X58420000Y-96520000D03*
D22*
X58420000Y-66040000D03*
D23*
X58420000Y-68580000D03*
X58420000Y-71120000D03*
X58420000Y-73660000D03*
X58420000Y-76200000D03*
X58420000Y-78740000D03*
D20*
X82430000Y-148590000D03*
X77430000Y-148590000D03*
X72430000Y-148590000D03*
X67430000Y-148590000D03*
X106560000Y-148590000D03*
X101560000Y-148590000D03*
X96560000Y-148590000D03*
X91560000Y-148590000D03*
X130690000Y-148590000D03*
X125690000Y-148590000D03*
X120690000Y-148590000D03*
X115690000Y-148590000D03*
X154820000Y-148590000D03*
X149820000Y-148590000D03*
X144820000Y-148590000D03*
X139820000Y-148590000D03*
D21*
X223520000Y-52070000D03*
X223520000Y-59690000D03*
X223520000Y-71120000D03*
X223520000Y-78740000D03*
X223520000Y-90170000D03*
X223520000Y-97790000D03*
X223520000Y-128270000D03*
X223520000Y-135890000D03*
X223520000Y-109220000D03*
X223520000Y-116840000D03*
D20*
X217050000Y-148590000D03*
X212050000Y-148590000D03*
X207050000Y-148590000D03*
X202050000Y-148590000D03*
X173910000Y-148590000D03*
X163910000Y-148590000D03*
X168910000Y-148590000D03*
X192960000Y-148590000D03*
X182960000Y-148590000D03*
X187960000Y-148590000D03*
D24*
X57960000Y-48260000D03*
X63960000Y-48260000D03*
X60960000Y-52960000D03*
D16*
X120650000Y-36830000D03*
X130810000Y-36830000D03*
D25*
X169371000Y-98171000D03*
X166671000Y-98171000D03*
X166450000Y-142240000D03*
X163750000Y-142240000D03*
X184230000Y-142240000D03*
X181530000Y-142240000D03*
X169371000Y-95123000D03*
X166671000Y-95123000D03*
D26*
X139740000Y-128310000D03*
X144740000Y-133310000D03*
X144740000Y-128310000D03*
X139740000Y-133310000D03*
X114340000Y-128310000D03*
X119340000Y-133310000D03*
X119340000Y-128310000D03*
X114340000Y-133310000D03*
X165140000Y-128310000D03*
X170140000Y-133310000D03*
X170140000Y-128310000D03*
X165140000Y-133310000D03*
X134840000Y-104140000D03*
D27*
X137240000Y-114640000D03*
X142240000Y-114640000D03*
X147240000Y-114640000D03*
X139740000Y-97140000D03*
X144740000Y-97140000D03*
D26*
X149640000Y-104140000D03*
D21*
X88900000Y-111380000D03*
X88900000Y-101980000D03*
X88900000Y-106680000D03*
D28*
X133910000Y-42500000D03*
X131370000Y-42500000D03*
X136450000Y-42500000D03*
X161850000Y-42500000D03*
X149150000Y-42500000D03*
X146610000Y-42500000D03*
X144070000Y-42500000D03*
X141530000Y-42500000D03*
X151690000Y-42500000D03*
X154230000Y-42500000D03*
X156770000Y-42500000D03*
X138990000Y-42500000D03*
X159310000Y-42500000D03*
X164390000Y-42500000D03*
X166930000Y-42500000D03*
D12*
X175970000Y-83500000D03*
X105970000Y-83500000D03*
X105970000Y-43500000D03*
X175970000Y-43500000D03*
D29*
X169470000Y-42500000D03*
D30*
X87320000Y-122775000D03*
X87320000Y-123425000D03*
X87320000Y-124075000D03*
X87320000Y-124725000D03*
X87320000Y-125375000D03*
X87320000Y-126025000D03*
X87320000Y-126675000D03*
X87320000Y-127325000D03*
X87320000Y-127975000D03*
X87320000Y-128625000D03*
X87320000Y-129275000D03*
X87320000Y-129925000D03*
X87320000Y-130575000D03*
X87320000Y-131225000D03*
X93020000Y-131225000D03*
X93020000Y-130575000D03*
X93020000Y-129925000D03*
X93020000Y-129275000D03*
X93020000Y-128625000D03*
X93020000Y-127975000D03*
X93020000Y-127325000D03*
X93020000Y-126675000D03*
X93020000Y-126025000D03*
X93020000Y-125375000D03*
X93020000Y-124725000D03*
X93020000Y-124075000D03*
X93020000Y-123425000D03*
X93020000Y-122775000D03*
D15*
X80010000Y-71080000D03*
D14*
X80010000Y-66080000D03*
D15*
X80010000Y-68580000D03*
D31*
X79375000Y-89154000D03*
X80645000Y-89154000D03*
X81915000Y-89154000D03*
X83185000Y-89154000D03*
X83185000Y-83566000D03*
X81915000Y-83566000D03*
X80645000Y-83566000D03*
X79375000Y-83566000D03*
D32*
X80010000Y-57540000D03*
D33*
X80010000Y-49140000D03*
D32*
X80010000Y-51940000D03*
X80010000Y-54740000D03*
D12*
X227330000Y-152400000D03*
D34*
X58420000Y-107950000D03*
D35*
X60960000Y-107950000D03*
X58420000Y-110490000D03*
X60960000Y-110490000D03*
X58420000Y-113030000D03*
X60960000Y-113030000D03*
X58420000Y-115570000D03*
X60960000Y-115570000D03*
X58420000Y-118110000D03*
X60960000Y-118110000D03*
D13*
X144780000Y-52277000D03*
X144780000Y-49577000D03*
X149479000Y-61896000D03*
X149479000Y-64596000D03*
D25*
X145749000Y-81915000D03*
X143049000Y-81915000D03*
D13*
X125349000Y-76534000D03*
X125349000Y-73834000D03*
D25*
X127428000Y-58547000D03*
X130128000Y-58547000D03*
X123016000Y-59817000D03*
X120316000Y-59817000D03*
X122381000Y-69977000D03*
X119681000Y-69977000D03*
X166925000Y-45212000D03*
X169625000Y-45212000D03*
D36*
X135096000Y-66465000D03*
X135096000Y-66965000D03*
X135096000Y-67465000D03*
X135096000Y-67965000D03*
X135096000Y-68465000D03*
X135096000Y-68965000D03*
X135096000Y-69465000D03*
X135096000Y-69965000D03*
X135096000Y-70465000D03*
X135096000Y-70965000D03*
X135096000Y-71465000D03*
X135096000Y-71965000D03*
D37*
X136696000Y-73565000D03*
X137196000Y-73565000D03*
X137696000Y-73565000D03*
X138196000Y-73565000D03*
X138696000Y-73565000D03*
X139196000Y-73565000D03*
X139696000Y-73565000D03*
X140196000Y-73565000D03*
X140696000Y-73565000D03*
X141196000Y-73565000D03*
X141696000Y-73565000D03*
X142196000Y-73565000D03*
D36*
X143796000Y-71965000D03*
X143796000Y-71465000D03*
X143796000Y-70965000D03*
X143796000Y-70465000D03*
X143796000Y-69965000D03*
X143796000Y-69465000D03*
X143796000Y-68965000D03*
X143796000Y-68465000D03*
X143796000Y-67965000D03*
X143796000Y-67465000D03*
X143796000Y-66965000D03*
X143796000Y-66465000D03*
D37*
X142196000Y-64865000D03*
X141696000Y-64865000D03*
X141196000Y-64865000D03*
X140696000Y-64865000D03*
X140196000Y-64865000D03*
X139696000Y-64865000D03*
X139196000Y-64865000D03*
X138696000Y-64865000D03*
X138196000Y-64865000D03*
X137696000Y-64865000D03*
X137196000Y-64865000D03*
X136696000Y-64865000D03*
D38*
X140589000Y-48227000D03*
X139319000Y-48227000D03*
X138049000Y-48227000D03*
X136779000Y-48227000D03*
X136779000Y-53627000D03*
X138049000Y-53627000D03*
X139319000Y-53627000D03*
X140589000Y-53627000D03*
D39*
X166370000Y-62357000D03*
X166370000Y-64897000D03*
X166370000Y-66167000D03*
X166370000Y-67437000D03*
X166370000Y-68707000D03*
X166370000Y-69977000D03*
X166370000Y-71247000D03*
X160020000Y-71247000D03*
X160020000Y-69977000D03*
X160020000Y-68707000D03*
X160020000Y-67437000D03*
X160020000Y-66167000D03*
X160020000Y-64897000D03*
X160020000Y-63627000D03*
X160020000Y-62357000D03*
X166370000Y-63627000D03*
D40*
X114090000Y-66751000D03*
X119590000Y-66751000D03*
X119590000Y-63551000D03*
X114090000Y-63551000D03*
M02*
